<svg width="181" height="64" viewBox="0 0 181 64" fill="none" xmlns="http://www.w3.org/2000/svg">
<path d="M81.7698 44.8445C79.5717 44.8445 77.6842 44.456 76.1078 43.6788C74.5314 42.9017 73.2436 41.8915 72.2442 40.648C71.2674 39.4046 70.5457 38.0502 70.0795 36.5847C69.6133 35.1193 69.3799 33.7093 69.3799 32.3549V31.6222C69.3799 30.1124 69.6133 28.6247 70.0795 27.1592C70.5679 25.6938 71.3117 24.3616 72.3106 23.1626C73.31 21.9636 74.5757 21.0088 76.1078 20.2983C77.662 19.5656 79.4939 19.1992 81.6029 19.1992C83.8011 19.1992 85.7108 19.5989 87.3319 20.3982C88.9748 21.1753 90.2848 22.2855 91.2615 23.7288C92.2388 25.1498 92.8271 26.8151 93.0269 28.7246H88.2644C88.0866 27.6144 87.6869 26.6819 87.0651 25.9269C86.466 25.1498 85.6999 24.5725 84.767 24.1951C83.8346 23.7954 82.7801 23.5956 81.6029 23.5956C80.4042 23.5956 79.3383 23.8065 78.4059 24.2284C77.4735 24.628 76.6961 25.2053 76.0743 25.9603C75.4525 26.7152 74.9755 27.6034 74.6422 28.6247C74.3316 29.6461 74.176 30.7784 74.176 32.0219C74.176 33.2209 74.3316 34.3311 74.6422 35.3524C74.9755 36.3738 75.4639 37.2731 76.1078 38.0502C76.7517 38.8051 77.5399 39.3935 78.4724 39.8154C79.4269 40.2373 80.5263 40.4482 81.7698 40.4482C83.5904 40.4482 85.1225 40.0041 86.366 39.116C87.6313 38.2056 88.3973 36.94 88.6641 35.3191H93.4267C93.2047 37.051 92.6164 38.6386 91.6613 40.0818C90.7067 41.5251 89.3967 42.6796 87.7312 43.5456C86.0662 44.4116 84.0788 44.8445 81.7698 44.8445Z" fill="white"/>
<path d="M95.6192 44.2115V19.8984H100.249V44.2115H95.6192ZM93.3545 23.3622V19.8984H100.249V23.3622H93.3545Z" fill="white"/>
<path d="M112.562 44.8466C110.963 44.8466 109.553 44.5913 108.332 44.0806C107.111 43.5699 106.078 42.8816 105.235 42.0157C104.391 41.1275 103.747 40.1284 103.303 39.0182C102.881 37.908 102.67 36.7534 102.67 35.5544V34.855C102.67 33.6116 102.892 32.4348 103.336 31.3246C103.802 30.1922 104.457 29.193 105.301 28.3271C106.167 27.4389 107.211 26.7506 108.432 26.2621C109.653 25.7515 111.03 25.4961 112.562 25.4961C114.094 25.4961 115.47 25.7515 116.692 26.2621C117.913 26.7506 118.945 27.4389 119.789 28.3271C120.655 29.193 121.31 30.1922 121.754 31.3246C122.198 32.4348 122.42 33.6116 122.42 34.855V35.5544C122.42 36.7534 122.198 37.908 121.754 39.0182C121.332 40.1284 120.699 41.1275 119.856 42.0157C119.012 42.8816 117.979 43.5699 116.758 44.0806C115.537 44.5913 114.138 44.8466 112.562 44.8466ZM112.562 40.8833C113.694 40.8833 114.649 40.639 115.426 40.1506C116.203 39.6399 116.792 38.9627 117.191 38.1189C117.591 37.253 117.79 36.276 117.79 35.1881C117.79 34.0779 117.58 33.1009 117.158 32.2572C116.758 31.3912 116.158 30.714 115.359 30.2255C114.582 29.7148 113.65 29.4595 112.562 29.4595C111.474 29.4595 110.53 29.7148 109.731 30.2255C108.953 30.714 108.354 31.3912 107.932 32.2572C107.51 33.1009 107.299 34.0779 107.299 35.1881C107.299 36.276 107.499 37.253 107.899 38.1189C108.321 38.9627 108.92 39.6399 109.697 40.1506C110.474 40.639 111.429 40.8833 112.562 40.8833Z" fill="white"/>
<path d="M130.97 44.7781C128.883 44.7781 127.262 44.0899 126.107 42.7132C124.975 41.3365 124.408 39.2937 124.408 36.5849V26.0938H129.038V36.9846C129.038 38.0947 129.349 38.983 129.971 39.6491C130.592 40.293 131.436 40.615 132.502 40.615C133.568 40.615 134.434 40.2708 135.1 39.5825C135.788 38.8942 136.132 37.9616 136.132 36.7848V26.0938H140.762V44.212H137.098V36.5183H137.464C137.464 38.339 137.232 39.86 136.765 41.0812C136.299 42.3023 135.6 43.2239 134.667 43.8456C133.734 44.4673 132.568 44.7781 131.17 44.7781H130.97Z" fill="white"/>
<path d="M151.908 44.811C150.643 44.811 149.477 44.5779 148.411 44.1116C147.346 43.6453 146.424 42.9903 145.647 42.1466C144.87 41.3028 144.27 40.3259 143.848 39.2157C143.426 38.0833 143.216 36.8621 143.216 35.5521V34.8526C143.216 33.5649 143.415 32.3547 143.815 31.2224C144.237 30.0899 144.814 29.1019 145.547 28.2581C146.302 27.4144 147.201 26.7594 148.244 26.2931C149.31 25.8046 150.487 25.5604 151.775 25.5604C153.196 25.5604 154.439 25.8713 155.505 26.4929C156.593 27.0924 157.459 28.0028 158.103 29.224C158.747 30.4452 159.102 31.9773 159.169 33.8202L157.803 32.2215V19.8984H162.433V44.2115H158.769V36.5179H159.569C159.502 38.3608 159.125 39.904 158.436 41.1474C157.748 42.3686 156.837 43.29 155.705 43.9118C154.595 44.5113 153.329 44.811 151.908 44.811ZM152.941 40.9143C153.851 40.9143 154.684 40.7144 155.439 40.3148C156.193 39.8929 156.793 39.2934 157.237 38.5163C157.703 37.7169 157.937 36.7843 157.937 35.7186V34.3864C157.937 33.3206 157.703 32.4324 157.237 31.7219C156.771 30.9892 156.16 30.4341 155.405 30.0567C154.65 29.657 153.829 29.4571 152.941 29.4571C151.941 29.4571 151.053 29.7014 150.276 30.1899C149.521 30.6561 148.922 31.3222 148.478 32.1882C148.056 33.0541 147.845 34.0644 147.845 35.219C147.845 36.3736 148.067 37.3839 148.511 38.2498C148.955 39.0936 149.555 39.7486 150.31 40.2148C151.087 40.6811 151.964 40.9143 152.941 40.9143Z" fill="white"/>
<path d="M51.9386 46.7689C50.3391 46.7689 49.3537 46.0305 47.7436 45.1608C46.1335 44.291 41.4768 40.7894 41.4768 36.4305C41.4768 33.4735 40.7145 31.0819 39.4164 29.1759C38.128 27.2846 36.3825 25.9742 34.5667 25.0492C33.6917 24.6036 32.7811 24.2391 31.8743 23.9379C31.3458 23.7625 31.039 23.1949 31.2684 22.6875C32.722 19.4694 35.9592 17.2305 39.7198 17.2305C44.8388 17.2305 48.9888 21.3802 48.9888 26.4994C48.9888 27.5946 48.7989 28.6456 48.4501 29.6209C49.9275 28.6252 51.7077 28.0442 53.6233 28.0442C58.7423 28.0442 62.8919 32.1939 62.8919 37.3132C62.8919 43.4759 57.4766 46.7689 51.9386 46.7689Z" fill="white"/>
<path d="M18.0918 36.5414C18.0918 41.4272 21.313 45.4981 25.5802 46.3976C26.2389 46.6382 26.95 46.7695 27.6918 46.7695H42.093C42.5759 46.7695 42.7862 46.1236 42.4175 45.8116C39.9007 43.682 38.0303 40.6808 38.0303 36.431C38.0303 34.0959 37.4389 32.3952 36.5678 31.1166C35.6867 29.8233 34.4476 28.8567 33.0021 28.1202C31.5432 27.3772 29.9594 26.9038 28.4468 26.5683C28.0906 26.5233 27.7281 26.5 27.3608 26.5C22.2416 26.5 18.0918 30.9957 18.0918 36.5414Z" fill="white"/>
</svg>
