<svg width="136" height="64" viewBox="0 0 136 64" fill="none" xmlns="http://www.w3.org/2000/svg">
<path d="M41.954 42.8049C42.0865 45.4653 39.5833 47.7518 36.3629 47.912C33.1426 48.0727 30.4246 46.0457 30.2921 43.3857C30.1596 40.7254 32.6628 38.4388 35.8832 38.2784C39.1035 38.1181 41.8215 40.1446 41.954 42.8049Z" fill="white"/>
<path d="M30.5049 37.4583C30.5766 38.8985 29.8402 40.1055 28.8601 40.1543C27.88 40.2031 27.0273 39.0752 26.9555 37.635C26.8839 36.1949 27.6203 34.9879 28.6003 34.939C29.5804 34.8902 30.4331 36.0182 30.5049 37.4583Z" fill="white"/>
<path d="M34.9242 34.3333C34.9959 35.7735 34.2596 36.9805 33.2794 37.0293C32.2993 37.0781 31.4466 35.9502 31.3749 34.51C31.3032 33.0699 32.0396 31.8629 33.0197 31.814C33.9998 31.7652 34.8525 32.8931 34.9242 34.3333Z" fill="white"/>
<path d="M39.4882 34.1067C39.56 35.5469 38.8236 36.7539 37.8435 36.8027C36.8633 36.8515 36.0106 35.7236 35.9389 34.2835C35.8672 32.8433 36.6036 31.6362 37.5837 31.5875C38.5638 31.5386 39.4165 32.6666 39.4882 34.1067Z" fill="white"/>
<path d="M44.1967 36.7747C44.2684 38.2148 43.532 39.4219 42.5519 39.4707C41.5718 39.5195 40.7191 38.3916 40.6474 36.9514C40.5757 35.5113 41.3121 34.3042 42.2922 34.2554C43.2723 34.2066 44.1249 35.3345 44.1967 36.7747Z" fill="white"/>
<path d="M26.7405 30.502C25.2254 32.6927 21.8473 32.9818 19.1955 31.1478C16.5435 29.3137 15.622 26.051 17.1371 23.8603C18.6522 21.6696 22.0302 21.3805 24.6821 23.2145C27.334 25.0486 28.2556 28.3113 26.7405 30.502Z" fill="white"/>
<path d="M20.917 19.2908C20.0968 20.4767 18.7776 20.9857 17.9705 20.4275C17.1634 19.8693 17.174 18.4554 17.9942 17.2694C18.8144 16.0835 20.1336 15.5746 20.9407 16.1328C21.7478 16.691 21.7372 18.1049 20.917 19.2908Z" fill="white"/>
<path d="M26.3242 19.5018C25.504 20.6877 24.1848 21.1966 23.3778 20.6384C22.5706 20.0802 22.5813 18.6663 23.4014 17.4804C24.2217 16.2944 25.5408 15.7855 26.3479 16.3437C27.1551 16.9019 27.1445 18.3158 26.3242 19.5018Z" fill="white"/>
<path d="M30.0835 22.1033C29.2633 23.2893 27.9441 23.7982 27.137 23.24C26.3299 22.6818 26.3405 21.2679 27.1607 20.0819C27.9809 18.896 29.3001 18.3871 30.1072 18.9453C30.9143 19.5035 30.9037 20.9174 30.0835 22.1033Z" fill="white"/>
<path d="M32.1909 27.0877C31.3707 28.2736 30.0515 28.7825 29.2445 28.2244C28.4373 27.6662 28.4479 26.2523 29.2682 25.0663C30.0884 23.8804 31.4076 23.3715 32.2146 23.9296C33.0218 24.4879 33.0112 25.9017 32.1909 27.0877Z" fill="white"/>
<path d="M52.9806 41.5061C51.71 40.8798 50.6721 40.0655 49.867 39.0633C49.0614 38.0435 48.4621 36.9517 48.0683 35.7884C47.6923 34.6075 47.5044 33.4622 47.5044 32.3527V31.762C47.5044 30.5452 47.7013 29.3461 48.0951 28.1649C48.489 26.9661 49.0882 25.8833 49.8934 24.9169C50.7169 23.9506 51.7458 23.1811 52.9806 22.6086C54.2333 22.0179 55.7093 21.7227 57.4096 21.7227C59.1814 21.7227 60.747 22.0538 62.1071 22.7159C63.4672 23.378 64.5498 24.2996 65.3554 25.4808C66.1785 26.644 66.6618 28.0129 66.8046 29.5878H62.3756C62.2508 28.8003 61.9639 28.1294 61.5168 27.5745C61.0692 27.0197 60.4878 26.5902 59.7722 26.286C59.074 25.9818 58.2863 25.8298 57.4096 25.8298C56.5328 25.8298 55.7545 25.9818 55.0743 26.286C54.3944 26.5902 53.822 27.0197 53.3565 27.5745C53.208 27.7585 53.0701 27.9543 52.9435 28.1619C52.9085 28.2191 52.8741 28.2773 52.841 28.3363L52.7949 28.4196C52.7609 28.4827 52.7273 28.5468 52.6951 28.6117C52.644 28.7141 52.5948 28.819 52.5487 28.9265C52.5236 28.9845 52.4999 29.0428 52.4762 29.102C52.457 29.1494 52.4382 29.1975 52.4198 29.2461C52.3813 29.3489 52.3446 29.4539 52.3097 29.561C52.0765 30.3125 51.9602 31.1536 51.9602 32.0841C51.9602 32.9969 52.0765 33.8378 52.3097 34.6075C52.337 34.6897 52.3657 34.7707 52.3952 34.8507L52.4413 34.9694C52.6803 35.5734 52.994 36.1149 53.383 36.5937C53.8663 37.1486 54.4571 37.578 55.1548 37.8822C55.853 38.1687 56.6492 38.3118 57.5438 38.3118C58.904 38.3118 60.0492 37.9808 60.9802 37.3186C61.9285 36.6565 62.5009 35.7438 62.6979 34.5806H67.1004C66.9389 36.0122 66.456 37.3276 65.6504 38.5266C64.8636 39.7076 63.7805 40.656 62.4025 41.3719C61.0424 42.0699 59.4227 42.4189 57.5438 42.4189C55.7724 42.4189 54.2512 42.1145 52.9806 41.5061Z" fill="white"/>
<path d="M68.625 41.9082V22.3125H72.947V41.9082H68.625Z" fill="white"/>
<path d="M76.81 40.7283C77.7225 41.8198 79.0289 42.3657 80.7292 42.3657H80.9172C82.0267 42.3657 83.193 42.3926 83.9444 41.9094C84.4622 41.5768 85.177 41.1081 85.6948 40.527V41.9094H89.1042V27.1992H84.8095V35.8428C84.8095 36.666 84.5679 37.3192 84.0845 37.8024C83.6016 38.2855 82.975 38.5272 82.2057 38.5272C81.4538 38.5272 80.8545 38.2945 80.407 37.8292C79.9599 37.364 79.7361 36.7377 79.7361 35.9501V27.1992H75.4409V35.7355C75.4409 37.9544 75.8974 39.6188 76.81 40.7283Z" fill="white"/>
<path fill-rule="evenodd" clip-rule="evenodd" d="M98.2589 42.4178C97.0062 42.4178 95.8962 42.203 94.93 41.7736C93.9816 41.344 93.1854 40.7714 92.5409 40.0555C91.9148 39.3219 91.4314 38.5077 91.0913 37.6127C90.7691 36.7002 90.6084 35.7695 90.6084 34.821V34.2843C90.6084 33.3 90.7691 32.3604 91.0913 31.4657C91.4314 30.5531 91.9148 29.7389 92.5409 29.023C93.1675 28.3071 93.9458 27.7435 94.8763 27.3318C95.8246 26.9023 96.8987 26.6875 98.0973 26.6875C99.6722 26.6875 100.997 27.0455 102.07 27.7614C103.162 28.4594 103.994 29.3809 104.567 30.5262C105.14 31.6536 105.426 32.8883 105.426 34.2305V35.6801H94.6816C94.7429 36.116 94.844 36.5188 94.9837 36.8881C95.2343 37.5324 95.6282 38.0334 96.1648 38.3912C96.7018 38.7491 97.3996 38.9281 98.2589 38.9281C99.0457 38.9281 99.6901 38.776 100.191 38.4718C100.426 38.3289 100.626 38.1703 100.791 37.9959C100.976 37.7988 101.116 37.5817 101.211 37.3444H105.157C104.943 38.3287 104.522 39.2054 103.895 39.9751C103.269 40.7445 102.482 41.344 101.534 41.7736C100.585 42.203 99.4932 42.4178 98.2589 42.4178ZM94.7357 33.1233C94.7281 33.1609 94.721 33.1989 94.7147 33.2373H101.347C101.285 32.8247 101.186 32.4491 101.05 32.1099C100.8 31.4836 100.424 31.0094 99.9229 30.6873C99.4395 30.3473 98.8313 30.1772 98.0973 30.1772C97.9603 30.1772 97.8265 30.1829 97.6967 30.1943C97.5683 30.2057 97.4434 30.2224 97.3226 30.245C96.8987 30.3236 96.5219 30.4712 96.1921 30.6873C95.6725 31.0273 95.2786 31.5284 95.0105 32.1906C94.9823 32.2579 94.9559 32.3269 94.9304 32.3975C94.9045 32.4705 94.8803 32.5452 94.8575 32.6217C94.8105 32.7812 94.7697 32.9484 94.7357 33.1233Z" fill="white"/>
<path d="M107.601 41.077C108.782 41.9361 110.419 42.3655 112.513 42.3655C113.837 42.3655 114.992 42.1775 115.976 41.8017C116.96 41.4081 117.721 40.8532 118.257 40.1375C118.794 39.4037 119.063 38.5446 119.063 37.5604C119.063 36.2005 118.562 35.1179 117.56 34.3124C116.557 33.5071 115.153 33.0062 113.345 32.8093L112.191 32.7018C111.421 32.6124 110.867 32.4603 110.527 32.2455C110.389 32.1583 110.278 32.0549 110.197 31.9352C110.077 31.7601 110.017 31.5503 110.017 31.306C110.017 30.8766 110.214 30.5366 110.607 30.2859C111.001 30.0355 111.529 29.9103 112.191 29.9103C113.032 29.9103 113.667 30.0803 114.096 30.4201C114.526 30.7422 114.777 31.145 114.848 31.6281H118.66C118.607 30.0534 117.998 28.8543 116.835 28.0311C115.672 27.19 114.142 26.7695 112.245 26.7695C111.063 26.7695 110.008 26.9485 109.077 27.3065C108.164 27.6642 107.449 28.1922 106.93 28.8902C106.411 29.5881 106.151 30.4559 106.151 31.4939C106.151 32.7466 106.59 33.7757 107.466 34.5809C108.362 35.3862 109.694 35.8783 111.466 36.0573L112.621 36.1646C113.587 36.2719 114.258 36.4598 114.634 36.7284C115.009 36.9789 115.197 37.3189 115.197 37.7484C115.197 38.2315 114.947 38.6074 114.446 38.8757C113.963 39.1264 113.345 39.2516 112.594 39.2516C111.609 39.2516 110.867 39.0726 110.365 38.7147C109.882 38.339 109.605 37.9183 109.534 37.4531H105.721C105.793 39.0101 106.42 40.2179 107.601 41.077Z" fill="white"/>
</svg>
