<svg width="143" height="64" viewBox="0 0 143 64" fill="none" xmlns="http://www.w3.org/2000/svg">
<path d="M28.7851 12.564C29.8441 11.9526 31.1487 11.9526 32.2076 12.564L46.2287 20.6591L36.5336 26.336C35.0328 24.8294 32.9559 23.8969 30.6613 23.8969C28.275 23.8969 26.1242 24.9054 24.6119 26.5195L14.6831 20.7058L28.7851 12.564Z" fill="white"/>
<path d="M22.7222 29.7992L12.7915 23.9844V40.2389L22.6852 34.4457C22.4821 33.7273 22.3734 32.9693 22.3734 32.1859C22.3734 31.3562 22.4953 30.555 22.7222 29.7992Z" fill="white"/>
<path d="M24.5232 37.7578L14.8394 43.4281L28.7854 51.4798C29.8443 52.0911 31.1489 52.0911 32.2078 51.4798L46.0729 43.4747L36.6262 37.9433C35.119 39.5053 33.0037 40.477 30.6616 40.477C28.228 40.477 26.0394 39.428 24.5232 37.7578Z" fill="white"/>
<path d="M38.5647 34.6905L48.2009 40.3331C48.2013 40.3112 48.2016 40.2893 48.2016 40.2674V23.8906L38.5239 29.5573C38.8001 30.3833 38.9497 31.2674 38.9497 32.1863C38.9497 33.0591 38.8148 33.9004 38.5647 34.6905Z" fill="white"/>
<path fill-rule="evenodd" clip-rule="evenodd" d="M59.6721 41.5136C61.061 42.3614 62.7297 42.7854 64.6778 42.7854C66.6259 42.7854 68.2943 42.3614 69.6835 41.5136C71.0816 40.6567 72.1501 39.4663 72.8897 37.942C73.6385 36.4179 74.0126 34.6499 74.0126 32.6388C74.0126 30.6275 73.6385 28.8597 72.8897 27.3355C72.1501 25.8113 71.0816 24.6252 69.6835 23.7774C68.2943 22.9206 66.6259 22.4922 64.6778 22.4922C62.7297 22.4922 61.061 22.9206 59.6721 23.7774C58.2833 24.6252 57.2145 25.8113 56.466 27.3355C55.7264 28.8597 55.3564 30.6275 55.3564 32.6388C55.3564 34.6499 55.7264 36.4179 56.466 37.942C57.2145 39.4663 58.2833 40.6567 59.6721 41.5136ZM67.9384 38.8486C67.0725 39.4348 65.9855 39.7233 64.6778 39.7144C63.3701 39.6963 62.2787 39.3941 61.4039 38.8078C60.538 38.2216 59.8888 37.4053 59.4558 36.3591C59.0229 35.3039 58.8062 34.0638 58.8062 32.6388C58.8062 31.2137 59.0229 29.9691 59.4558 28.9048C59.8977 27.8406 60.5514 27.0153 61.4172 26.429C62.2831 25.8428 63.3701 25.5542 64.6778 25.5632C65.9855 25.5813 67.0725 25.8834 67.9384 26.4696C68.8132 27.0559 69.4669 27.8766 69.8998 28.9319C70.342 29.9781 70.5627 31.2137 70.5627 32.6388C70.5627 34.0638 70.342 35.3084 69.8998 36.3728C69.4669 37.4368 68.8132 38.2623 67.9384 38.8486Z" fill="white"/>
<path d="M75.623 41.6941C75.623 42.0719 75.9294 42.3786 76.3075 42.3786H78.2125C78.5907 42.3786 78.897 42.0719 78.897 41.6941V34.9512C78.897 34.3919 78.9647 33.8735 79.0999 33.3954C79.2351 32.9084 79.4425 32.4755 79.7221 32.0967C80.011 31.7179 80.3806 31.4067 80.8317 31.1632C81.2824 30.8926 81.7876 30.7348 82.3468 30.6897C82.5566 30.673 82.7572 30.6681 82.9485 30.6748C83.4047 30.6908 83.8486 30.3551 83.8486 29.8988V28.3473C83.8486 28.0127 83.6066 27.7225 83.2726 27.7038C83.0224 27.6899 82.7678 27.693 82.509 27.7133C82.0491 27.7404 81.5983 27.8261 81.1565 27.9704C80.7235 28.1057 80.3265 28.2951 79.9658 28.5386C79.5418 28.8002 79.1766 29.1339 78.8699 29.5397C78.7365 29.7178 78.6146 29.905 78.5048 30.1012V28.452C78.5048 28.0739 78.1981 27.7675 77.8203 27.7675H76.3075C75.9294 27.7675 75.623 28.0739 75.623 28.452V41.6941Z" fill="white"/>
<path fill-rule="evenodd" clip-rule="evenodd" d="M92.3694 42.7858C90.9442 42.7858 89.7491 42.4477 88.784 41.771C88.5793 41.6276 88.3856 41.4733 88.2025 41.308V41.6954C88.2025 42.0732 87.8959 42.3799 87.518 42.3799H86.0053C85.6271 42.3799 85.3208 42.0732 85.3208 41.6954V23.5829C85.3208 23.2049 85.6271 22.8984 86.0053 22.8984H87.9236C88.3018 22.8984 88.6081 23.2049 88.6081 23.5829V28.4767C88.6529 28.4431 88.6977 28.41 88.7436 28.3776C89.6906 27.7011 90.8583 27.3629 92.2475 27.3629C93.6275 27.3629 94.8226 27.7011 95.8325 28.3776C96.8517 29.045 97.641 29.9604 98.2002 31.1239C98.7594 32.2784 99.039 33.5952 99.039 35.0743C99.039 36.5354 98.7639 37.8479 98.2135 39.0112C97.6636 40.1748 96.8877 41.0948 95.8866 41.771C94.8856 42.4477 93.713 42.7858 92.3694 42.7858ZM88.5677 32.5715C88.324 33.284 88.2025 34.1183 88.2025 35.0743C88.2025 36.0213 88.324 36.8557 88.5677 37.5772C88.8203 38.2986 89.2125 38.8623 89.7447 39.2682C90.2858 39.6652 90.9939 39.8634 91.8686 39.8634C92.7164 39.8634 93.4156 39.6515 93.9656 39.2278C94.5159 38.8038 94.9215 38.2312 95.1833 37.5094C95.4537 36.779 95.5892 35.9672 95.5892 35.0743C95.5892 34.1904 95.4537 33.3877 95.1833 32.6662C94.9126 31.9356 94.4933 31.3584 93.9249 30.9345C93.3567 30.5016 92.6353 30.2851 91.7605 30.2851C90.9306 30.2851 90.2543 30.4881 89.731 30.8939C89.208 31.2908 88.8203 31.8499 88.5677 32.5715Z" fill="white"/>
<path d="M101.209 41.6961C101.209 42.074 101.516 42.3806 101.894 42.3806H103.785C104.163 42.3806 104.47 42.074 104.47 41.6961V28.454C104.47 28.076 104.163 27.7695 103.785 27.7695H101.894C101.516 27.7695 101.209 28.076 101.209 28.454V41.6961Z" fill="white"/>
<path d="M116.004 41.8122C116.004 42.1418 115.769 42.4266 115.443 42.4741C114.671 42.5871 113.911 42.6326 113.163 42.6107C112.243 42.5925 111.418 42.4259 110.687 42.11C109.956 41.7855 109.402 41.2759 109.023 40.5812C108.689 39.9501 108.513 39.3053 108.495 38.6468C108.477 37.9883 108.468 37.2443 108.468 36.4143V30.3265H106.501C106.123 30.3265 105.817 30.0201 105.817 29.642V28.4541C105.817 28.076 106.123 27.7696 106.501 27.7696H108.468V24.3954C108.468 24.0174 108.775 23.7109 109.153 23.7109H111.03C111.409 23.7109 111.715 24.0174 111.715 24.3954V27.7696H115.319C115.697 27.7696 116.004 28.076 116.004 28.4541V29.642C116.004 30.0201 115.697 30.3265 115.319 30.3265H111.715V36.2251C111.715 36.8113 111.72 37.3254 111.729 37.7672C111.747 38.2094 111.841 38.5701 112.013 38.8497C112.337 39.3908 112.856 39.693 113.569 39.756C114.069 39.8005 114.618 39.7957 115.216 39.7423C115.632 39.705 116.004 40.0233 116.004 40.4415V41.8122Z" fill="white"/>
<path d="M119.813 41.7851C120.877 42.4525 122.162 42.7862 123.668 42.7862C125.301 42.7862 126.681 42.3891 127.808 41.5955C128.753 40.9226 129.461 40.0088 129.93 38.8544C130.08 38.4855 129.845 38.0851 129.456 37.9985L127.449 37.5494C127.107 37.4731 126.769 37.6706 126.615 37.9848C126.38 38.4612 126.079 38.8438 125.711 39.1334C125.215 39.53 124.534 39.7285 123.668 39.7285C122.442 39.7285 121.517 39.3 120.895 38.4434C120.273 37.5864 119.961 36.4635 119.961 35.0747C119.961 34.1818 120.092 33.3836 120.354 32.6801C120.615 31.9766 121.021 31.4264 121.571 31.0296C122.122 30.6237 122.82 30.4208 123.668 30.4208C124.417 30.4208 125.084 30.6418 125.671 31.0837C126.096 31.3981 126.434 31.8053 126.684 32.3052C126.847 32.6322 127.206 32.8349 127.559 32.7393L129.532 32.2051C129.89 32.1081 130.11 31.7413 129.986 31.391C129.585 30.2477 128.895 29.3245 127.916 28.6214C126.771 27.7827 125.368 27.3633 123.709 27.3633C122.23 27.3633 120.953 27.697 119.88 28.3644C118.807 29.0228 117.977 29.9338 117.391 31.0972C116.814 32.2517 116.521 33.5775 116.511 35.0747C116.521 36.545 116.805 37.8616 117.364 39.0252C117.932 40.1885 118.748 41.1085 119.813 41.7851Z" fill="white"/>
<path d="M101.132 23.8323L102.05 22.914C102.451 22.513 103.101 22.513 103.502 22.914L104.42 23.8323C104.821 24.2333 104.821 24.8834 104.42 25.2843L103.502 26.2026C103.101 26.6036 102.451 26.6036 102.05 26.2026L101.132 25.2843C100.731 24.8834 100.731 24.2333 101.132 23.8323Z" fill="white"/>
</svg>
