<svg width="161" height="64" viewBox="0 0 161 64" fill="none" xmlns="http://www.w3.org/2000/svg">
<path fill-rule="evenodd" clip-rule="evenodd" d="M48.413 16.5621C49.6446 17.0723 50.7635 17.8203 51.706 18.7632C52.6489 19.7056 53.3969 20.8246 53.9073 22.0562C54.4175 23.2878 54.68 24.6079 54.68 25.941C54.68 27.2741 54.4175 28.5942 53.9073 29.8258C53.3969 31.0574 52.6489 32.1764 51.706 33.1189L37.6264 47.1983C36.3938 48.4312 34.3951 48.4312 33.1626 47.1983L19.083 33.1189C17.1794 31.2151 16.1099 28.6332 16.1099 25.941C16.1099 23.2488 17.1794 20.6669 19.083 18.7632C20.9867 16.8595 23.5686 15.7901 26.2608 15.7901C28.953 15.7901 31.5349 16.8595 33.4386 18.7632L35.3945 20.7191L37.3504 18.7632C38.2929 17.8203 39.4118 17.0723 40.6434 16.5621C41.875 16.0517 43.195 15.7891 44.5284 15.7891C45.8614 15.7891 47.1814 16.0517 48.413 16.5621ZM30.0934 26.8265C28.6538 28.9854 27.5858 31.1575 27.5858 33.5132C27.5858 36.9836 29.5728 40.2463 32.4217 41.512L33.3958 40.1258C34.5718 38.7821 36.479 38.7815 37.6557 40.1258L38.4515 41.0349C41.3003 39.769 43.0486 36.8013 43.0486 33.5126C43.0486 29.4279 39.6943 26.7633 39.6943 26.7633C39.3575 26.4441 39.0771 26.5718 39.0759 27.0311C39.0759 27.0311 39.2872 31.0056 37.1977 31.0056C36.1334 31.0056 36.1144 29.9918 36.0869 28.5179C36.052 26.6462 36.0032 24.0327 33.782 21.8116C32.9069 21.0615 32.5554 20.7602 32.3936 20.8406C32.0153 21.0289 32.6787 23.312 30.0934 26.8265ZM39.3175 23.4645C38.5645 22.3028 37.104 21.6344 36.4597 21.7461C36.1809 21.7942 36.2639 21.8859 36.4787 22.1237C36.7609 22.4361 37.2711 23.0005 37.4884 24.0492C37.8717 25.8953 40.369 25.1427 39.3175 23.4645Z" fill="white"/>
<path d="M81.6072 27.2593C81.0668 26.2687 80.3238 25.5144 79.3785 24.9966C78.4328 24.4787 77.3295 24.2198 76.0686 24.2198C74.6728 24.2198 73.4346 24.535 72.3538 25.1654C71.2729 25.7959 70.4288 26.6964 69.8209 27.8672C69.2131 29.0379 68.909 30.3888 68.909 31.9199C68.909 33.4959 69.2131 34.8693 69.8209 36.04C70.4513 37.2107 71.3182 38.1114 72.4212 38.7417C73.5245 39.372 74.8079 39.6874 76.2712 39.6874C78.0726 39.6874 79.5471 39.2144 80.6953 38.2691C81.8436 37.3006 82.5978 35.9613 82.9581 34.2502H74.8529V30.6365H87.6185V34.7566C87.3035 36.4003 86.628 37.92 85.5924 39.3158C84.5565 40.7117 83.2169 41.8374 81.5735 42.6929C79.9523 43.5261 78.1288 43.9426 76.1023 43.9426C73.8286 43.9426 71.7684 43.4359 69.9221 42.4228C68.0985 41.3873 66.6575 39.9574 65.5994 38.1339C64.5639 36.31 64.0459 34.2389 64.0459 31.9199C64.0459 29.6008 64.5639 27.5295 65.5994 25.7058C66.6575 23.8596 68.0985 22.4299 69.9221 21.4168C71.7684 20.3811 73.8173 19.8633 76.0686 19.8633C78.7254 19.8633 81.0331 20.5162 82.9918 21.822C84.9505 23.1054 86.3014 24.9178 87.0444 27.2593H81.6072Z" fill="white"/>
<path d="M106.82 33.98C106.82 34.6556 106.776 35.2634 106.686 35.8038H93.008C93.1204 37.1547 93.5934 38.2127 94.4263 38.9782C95.2593 39.7437 96.2839 40.1265 97.4996 40.1265C99.2557 40.1265 100.505 39.3722 101.248 37.8637H106.348C105.807 39.665 104.772 41.1508 103.241 42.3218C101.71 43.4701 99.8298 44.0439 97.601 44.0439C95.7997 44.0439 94.1788 43.6499 92.7377 42.8619C91.3194 42.0515 90.2048 40.9144 89.3944 39.4512C88.6064 37.9876 88.2124 36.2989 88.2124 34.3852C88.2124 32.449 88.6064 30.7492 89.3944 29.2858C90.1823 27.8223 91.2856 26.6966 92.704 25.9086C94.1223 25.1206 95.7547 24.7266 97.601 24.7266C99.3796 24.7266 100.967 25.1093 102.363 25.8748C103.781 26.6403 104.873 27.7323 105.639 29.1507C106.426 30.5466 106.82 32.1564 106.82 33.98ZM101.924 32.6291C101.901 31.4134 101.462 30.4453 100.607 29.7248C99.7511 28.9818 98.704 28.6103 97.4659 28.6103C96.2951 28.6103 95.3045 28.9705 94.4938 29.691C93.7058 30.389 93.2219 31.3685 93.0417 32.6291H101.924Z" fill="white"/>
<path d="M118.951 24.7617C121.18 24.7617 122.981 25.4709 124.355 26.8893C125.728 28.2852 126.415 30.244 126.415 32.7657V43.7415H121.687V33.4072C121.687 31.9215 121.315 30.7843 120.572 29.9964C119.829 29.1858 118.816 28.7805 117.533 28.7805C116.227 28.7805 115.191 29.1858 114.426 29.9964C113.683 30.7843 113.311 31.9215 113.311 33.4072V43.7415H108.583V25.0319H113.311V27.3621C113.942 26.5516 114.741 25.9212 115.709 25.4709C116.7 24.9981 117.781 24.7617 118.951 24.7617Z" fill="white"/>
<path d="M134.051 39.7556H144.656V43.7407H128.581V40.0934L139.117 24.153H128.581V20.168H144.656V23.8153L134.051 39.7556Z" fill="white"/>
</svg>
