<svg width="157" height="64" viewBox="0 0 157 64" fill="none" xmlns="http://www.w3.org/2000/svg">
<path d="M25.0652 20H20.9498C20.7289 20 20.5498 20.1791 20.5498 20.4V28.1548L25.0652 20Z" fill="white"/>
<path d="M20.5498 30.6491C20.5628 30.6496 20.5759 30.65 20.5892 30.65H26.8635C27.3546 30.65 27.7405 31.0695 27.6986 31.558L27.1557 37.8899C27.0785 38.7896 28.2867 39.1564 28.7244 38.366L35.244 26.5915C35.5528 26.0338 35.1487 25.35 34.5104 25.35H28.2361C27.745 25.35 27.3591 24.9305 27.401 24.442L27.7819 20H34.1134C39.9479 20 42.5634 27.3386 38.0509 31.0485L34.5234 33.9486C34.2924 34.1386 34.2469 34.4753 34.4192 34.7201L40.5062 43.3696C40.693 43.6348 40.5034 44 40.1792 44H20.9498C20.7289 44 20.5498 43.8208 20.5498 43.6V30.6491Z" fill="white"/>
<path d="M89.0925 32.9938V39.0582H92.4421V32.2494C92.4421 31.4467 92.2673 30.7461 91.9169 30.1476C91.5813 29.5346 91.0997 29.0602 90.4721 28.7246C89.8441 28.3742 89.1145 28.199 88.2825 28.199C87.4653 28.199 86.7425 28.3742 86.1153 28.7246C85.9485 28.8137 85.7917 28.9133 85.6445 29.023C85.5649 29.0822 85.4885 29.1445 85.4145 29.2098V23.6016H82.0649V39.0582H85.4145V32.9938C85.4145 32.6289 85.4949 32.3078 85.6557 32.0305C85.8161 31.7385 86.0349 31.5195 86.3121 31.3736C86.5897 31.2131 86.9105 31.1328 87.2753 31.1328C87.8009 31.1328 88.2317 31.308 88.5673 31.6582C88.9177 31.994 89.0925 32.4391 89.0925 32.9938Z" fill="white"/>
<path fill-rule="evenodd" clip-rule="evenodd" d="M51.8758 32.6873V39.0582H48.439V23.6016H54.7438C55.7658 23.6016 56.6634 23.7986 57.437 24.1926C58.2102 24.5721 58.8162 25.1049 59.2542 25.7908C59.6918 26.4768 59.9106 27.265 59.9106 28.1553C59.9106 29.0602 59.6918 29.8557 59.2542 30.5416C58.8162 31.2131 58.2034 31.7385 57.415 32.118C56.9754 32.3297 56.4926 32.4824 55.9666 32.576L60.9182 39.0582H56.8458L52.2358 32.6873H51.8758ZM51.8758 30.1476H54.3282C55.0142 30.1476 55.5398 29.9724 55.9046 29.6221C56.2838 29.2719 56.4738 28.7974 56.4738 28.199C56.4738 27.6445 56.2914 27.1848 55.9262 26.8199C55.5614 26.4549 55.0362 26.2724 54.3502 26.2724H51.8758V30.1476Z" fill="white"/>
<path fill-rule="evenodd" clip-rule="evenodd" d="M63.1283 38.5971C64.0335 39.0641 65.0623 39.2977 66.2151 39.2977C67.1059 39.2977 67.9231 39.1443 68.6675 38.8379C69.4115 38.5312 70.0467 38.0715 70.5723 37.4586L68.7331 35.6195C68.4119 35.9843 68.0399 36.2617 67.6163 36.4515C67.1931 36.6265 66.7191 36.7143 66.1931 36.7143C65.6243 36.7143 65.1279 36.5975 64.7047 36.3639C64.2959 36.1158 63.9751 35.7728 63.7415 35.3349C63.6679 35.183 63.6071 35.0213 63.5583 34.8496L71.1851 34.8314C71.2435 34.5541 71.2799 34.3133 71.2943 34.109C71.3047 34.0326 71.3127 33.9582 71.3195 33.8853C71.3231 33.8492 71.3255 33.8137 71.3279 33.7785C71.3315 33.7256 71.3343 33.6736 71.3359 33.6227L71.3375 33.5664L71.3383 33.4959C71.3383 32.4595 71.1051 31.54 70.6379 30.7373C70.1855 29.9345 69.5579 29.307 68.7551 28.8545C67.9523 28.4021 67.0251 28.1758 65.9747 28.1758C64.8943 28.1758 63.9239 28.4166 63.0627 28.8982C62.2015 29.3799 61.5155 30.0441 61.0047 30.8906C60.5083 31.7225 60.2603 32.6713 60.2603 33.7367C60.2603 34.8021 60.5159 35.7582 61.0263 36.6047C61.5375 37.4511 62.2383 38.1154 63.1283 38.5971ZM63.5591 32.5502C63.5755 32.4931 63.5931 32.4373 63.6119 32.3826C63.6439 32.2904 63.6795 32.2015 63.7195 32.1166C63.9387 31.6787 64.2379 31.3429 64.6171 31.1095C65.0111 30.8613 65.4711 30.7373 65.9963 30.7373C66.4923 30.7373 66.9083 30.8469 67.2443 31.0658L67.2895 31.0927L67.3343 31.1215C67.3723 31.1467 67.4087 31.1732 67.4443 31.201C67.4791 31.2281 67.5131 31.2566 67.5459 31.2863C67.7495 31.4707 67.9115 31.7037 68.0323 31.9853C68.1059 32.1502 68.1651 32.334 68.2103 32.5369L63.5591 32.5502Z" fill="white"/>
<path d="M77.2249 39.2977C76.1297 39.2977 75.1373 39.0568 74.2469 38.5752C73.3569 38.0935 72.6565 37.4293 72.1453 36.5828C71.6345 35.7363 71.3789 34.7875 71.3789 33.7367C71.3789 32.6713 71.6345 31.7225 72.1453 30.8906C72.6709 30.0441 73.3785 29.3799 74.2689 28.8982C75.1593 28.4166 76.1589 28.1758 77.2685 28.1758C78.1001 28.1758 78.8589 28.3219 79.5453 28.6137C79.8949 28.7521 80.2249 28.9269 80.5345 29.1381C80.8449 29.35 81.1357 29.5984 81.4061 29.8836L79.2605 32.0291C79.0125 31.7517 78.7205 31.5475 78.3849 31.416C78.2333 31.3541 78.0709 31.3068 77.8965 31.274C77.8169 31.259 77.7353 31.2471 77.6513 31.2383C77.5645 31.2291 77.4753 31.2232 77.3833 31.2207C77.3453 31.2195 77.3073 31.2189 77.2685 31.2189C77.1501 31.2189 77.0349 31.2256 76.9229 31.2387L76.8625 31.2465L76.8249 31.2519C76.7861 31.258 76.7473 31.265 76.7089 31.2727C76.4465 31.3254 76.2025 31.417 75.9765 31.5475C75.6117 31.7517 75.3201 32.0435 75.1009 32.423C74.8965 32.7881 74.7941 33.2185 74.7941 33.7148C74.7941 34.2111 74.8965 34.649 75.1009 35.0283C75.3201 35.4078 75.6193 35.707 75.9985 35.926C76.3777 36.1449 76.8013 36.2545 77.2685 36.2545C77.7065 36.2545 78.0929 36.1814 78.4285 36.0355C78.7789 35.875 79.0781 35.656 79.3261 35.3787L81.4501 37.5242C80.8953 38.108 80.2677 38.5531 79.5673 38.8597C78.8665 39.1515 78.0857 39.2977 77.2249 39.2977Z" fill="white"/>
<path fill-rule="evenodd" clip-rule="evenodd" d="M98.1622 39.2773C97.1846 39.2773 96.3086 39.0365 95.5354 38.5547C94.7762 38.073 94.1706 37.4164 93.7182 36.5843C93.2802 35.7525 93.061 34.8037 93.061 33.7383C93.061 32.6728 93.2802 31.724 93.7182 30.8922C94.1706 30.0601 94.7762 29.4035 95.5354 28.9217C96.3086 28.44 97.1846 28.1992 98.1622 28.1992C98.8774 28.1992 99.5198 28.3379 100.089 28.6152C100.472 28.7971 100.807 29.0259 101.096 29.3017V28.4181H104.38V39.0584H101.096V38.1963C100.899 38.3828 100.677 38.548 100.431 38.692C100.387 38.7183 100.341 38.7441 100.294 38.7691C100.234 38.8009 100.173 38.8316 100.111 38.8613C99.527 39.1387 98.8774 39.2773 98.1622 39.2773ZM98.8414 36.256C99.5566 36.256 100.133 36.0225 100.571 35.5555C101.009 35.0738 101.227 34.4679 101.227 33.7383C101.227 33.49 101.202 33.2564 101.151 33.0375C101.099 32.8185 101.023 32.6142 100.921 32.4246C100.731 32.0451 100.454 31.7533 100.089 31.549C99.8918 31.4258 99.6762 31.3373 99.4422 31.2834C99.2602 31.2414 99.0674 31.2205 98.863 31.2205C98.6298 31.2205 98.409 31.2478 98.2014 31.3025C98.0746 31.3359 97.9522 31.3795 97.835 31.4332C97.7598 31.4676 97.6866 31.5062 97.615 31.549C97.2646 31.7533 96.9802 32.0451 96.761 32.4246C96.557 32.8041 96.455 33.242 96.455 33.7383C96.455 34.2199 96.557 34.6506 96.761 35.0299C96.9654 35.4093 97.2502 35.7086 97.615 35.9275C97.9798 36.1465 98.3886 36.256 98.8414 36.256Z" fill="white"/>
<path d="M109.212 28.4181H105.862V39.0584H109.212V33.2129C109.212 32.5267 109.373 32.016 109.694 31.6803C110.03 31.3301 110.475 31.1549 111.029 31.1549C111.307 31.1549 111.555 31.1986 111.774 31.2863C111.992 31.3738 112.175 31.4978 112.321 31.6584L114.313 29.1406C114.021 28.8195 113.678 28.5861 113.284 28.44C112.905 28.2795 112.46 28.1992 111.949 28.1992C110.781 28.1992 109.869 28.5424 109.212 29.2283V28.4181Z" fill="white"/>
<path fill-rule="evenodd" clip-rule="evenodd" d="M118.541 43.8309C117.373 43.8309 116.344 43.6265 115.454 43.2181C114.578 42.8241 113.885 42.2621 113.374 41.5321L115.432 39.4742C115.811 39.9267 116.235 40.2697 116.702 40.5033C117.183 40.7365 117.76 40.8533 118.431 40.8533C119.263 40.8533 119.912 40.6493 120.38 40.2405C120.861 39.8318 121.102 39.2553 121.102 38.5109V37.8389C120.874 38.0213 120.619 38.1795 120.336 38.3139C119.752 38.5912 119.103 38.7299 118.388 38.7299C117.409 38.7299 116.541 38.4965 115.782 38.0293C115.023 37.5623 114.425 36.9273 113.987 36.1246C113.549 35.3219 113.33 34.4316 113.33 33.4537C113.33 32.4611 113.549 31.5709 113.987 30.7826C114.425 29.9799 115.023 29.3523 115.782 28.8998C116.541 28.4328 117.409 28.1992 118.388 28.1992C119.117 28.1992 119.767 28.3379 120.336 28.6152C120.388 28.6387 120.44 28.6631 120.49 28.6885C120.738 28.8139 120.964 28.9621 121.168 29.1332V28.4181H124.452V38.4234C124.452 39.5181 124.196 40.4669 123.686 41.2693C123.175 42.0721 122.474 42.6997 121.584 43.1521C120.693 43.6049 119.679 43.8309 118.541 43.8309ZM119.022 35.7525C119.49 35.7525 119.891 35.6502 120.226 35.4459C120.312 35.3957 120.393 35.3414 120.469 35.2832C120.7 35.1049 120.882 34.8891 121.014 34.6359C121.071 34.5316 121.119 34.4236 121.158 34.3117C121.21 34.1666 121.248 34.0148 121.271 33.8566C121.29 33.7267 121.299 33.5924 121.299 33.4537C121.299 33.0158 121.204 32.6217 121.014 32.2715C120.84 31.9211 120.576 31.6437 120.226 31.4394C119.891 31.2351 119.49 31.133 119.022 31.133C118.884 31.133 118.752 31.1426 118.623 31.1615L118.556 31.1725L118.497 31.1834C118.37 31.209 118.247 31.2443 118.13 31.2894C118.064 31.3146 118 31.3429 117.938 31.3742C117.898 31.3947 117.858 31.4164 117.818 31.4394C117.468 31.6437 117.198 31.9211 117.008 32.2715C116.909 32.4539 116.836 32.6482 116.789 32.8545C116.745 33.0441 116.724 33.2439 116.724 33.4537C116.724 33.8623 116.818 34.249 117.008 34.6141C117.198 34.9642 117.46 35.2416 117.796 35.4459C117.984 35.5557 118.19 35.6361 118.412 35.6869C118.603 35.7307 118.806 35.7525 119.022 35.7525Z" fill="white"/>
<path fill-rule="evenodd" clip-rule="evenodd" d="M128.108 38.5971C129.013 39.0641 130.042 39.2977 131.195 39.2977C132.085 39.2977 132.903 39.1443 133.647 38.8379C134.391 38.5312 135.026 38.0715 135.551 37.4586L133.712 35.6195C133.391 35.9843 133.019 36.2617 132.596 36.4515C132.173 36.6265 131.698 36.7143 131.173 36.7143C130.604 36.7143 130.107 36.5975 129.684 36.3639C129.392 36.1869 129.145 35.9615 128.943 35.6877C128.911 35.6441 128.88 35.5992 128.85 35.5531C128.804 35.4834 128.761 35.4105 128.721 35.3349C128.647 35.183 128.586 35.0213 128.537 34.8496L136.165 34.8314C136.193 34.6945 136.217 34.5664 136.235 34.4473C136.254 34.325 136.267 34.2123 136.274 34.109C136.284 34.0318 136.293 33.9564 136.299 33.883C136.311 33.7478 136.318 33.6187 136.318 33.4959C136.318 32.4595 136.084 31.54 135.617 30.7373C135.165 29.9345 134.537 29.307 133.735 28.8545C132.931 28.4021 132.005 28.1758 130.954 28.1758C129.874 28.1758 128.903 28.4166 128.042 28.8982C127.181 29.3799 126.495 30.0441 125.984 30.8906C125.488 31.7225 125.24 32.6713 125.24 33.7367C125.24 34.8021 125.495 35.7582 126.006 36.6047C126.517 37.4511 127.217 38.1154 128.108 38.5971ZM128.539 32.5502C128.583 32.3967 128.636 32.2519 128.699 32.1166C128.824 31.8666 128.975 31.65 129.152 31.4668C129.214 31.4025 129.28 31.3424 129.349 31.2863C129.427 31.2221 129.509 31.1631 129.597 31.1095C129.991 30.8613 130.451 30.7373 130.976 30.7373C131.472 30.7373 131.888 30.8469 132.224 31.0658C132.358 31.1439 132.479 31.2369 132.587 31.3449C132.762 31.5193 132.904 31.7328 133.012 31.9853C133.085 32.1502 133.144 32.334 133.19 32.5369L128.539 32.5502Z" fill="white"/>
</svg>
