<svg width="191" height="64" viewBox="0 0 191 64" fill="none" xmlns="http://www.w3.org/2000/svg">
<path d="M73.7173 17.1328H79.8253L73.1692 45.779H62.427L55.771 17.1328H61.8794L66.8506 40.7238H68.746L73.7173 17.1328Z" fill="white"/>
<path d="M85.649 37.6493C85.677 38.9412 86.0139 39.882 86.6599 40.4718C87.3338 41.0335 88.2887 41.3143 89.5246 41.3143C92.1363 41.3143 94.4675 41.2301 96.5176 41.0616L97.6971 40.9352L97.7815 45.1059C94.5518 45.8921 91.6307 46.2855 89.019 46.2855C85.8457 46.2855 83.5425 45.4429 82.1104 43.7577C80.6778 42.0726 79.9619 39.3344 79.9619 35.543C79.9619 27.9883 83.0653 24.2109 89.2716 24.2109C95.394 24.2109 98.4554 27.3844 98.4554 33.7316L98.0341 37.6493H85.649ZM92.8946 33.3524C92.8946 31.6673 92.628 30.5018 92.0944 29.8559C91.5607 29.1819 90.6198 28.8449 89.2716 28.8449C87.9517 28.8449 87.0108 29.1959 86.4492 29.898C85.9156 30.572 85.635 31.7235 85.6066 33.3524H92.8946Z" fill="white"/>
<path d="M101.647 45.7798V24.7165H107.25V26.9492C109.609 25.5449 111.856 24.6322 113.991 24.2109V29.898C111.715 30.3755 109.764 30.8669 108.135 31.3725L107.292 31.6674V45.7798H101.647Z" fill="white"/>
<path d="M128.148 29.5174H122.966V38.1534C122.966 38.9959 122.98 39.5997 123.009 39.9648C123.065 40.3018 123.22 40.5967 123.472 40.8495C123.753 41.1023 124.174 41.2286 124.736 41.2286L127.938 41.1444L128.19 45.6521C126.308 46.0734 124.876 46.284 123.893 46.284C121.366 46.284 119.638 45.722 118.712 44.5988C117.785 43.4472 117.322 41.341 117.322 38.2798V29.5174H114.836V24.715H117.322V18.8594H122.966V24.715H128.148V29.5174Z" fill="white"/>
<path d="M130.981 45.7778V24.7144H136.626V45.7778H130.981ZM130.981 22.0182V16.2891H136.626V22.0182H130.981Z" fill="white"/>
<path d="M160.083 48.3893C160.083 50.8048 159.156 52.5879 157.303 53.7395C155.449 54.8911 152.935 55.4666 149.762 55.4666C146.617 55.4666 144.187 55.0454 142.474 54.2028C140.789 53.3606 139.946 51.8297 139.946 49.6113C139.946 47.8417 140.958 46.171 142.98 44.5981C141.94 43.8958 141.421 42.8286 141.421 41.3964C141.421 40.8347 141.842 39.908 142.685 38.616L143.064 38.0263C141.154 36.6501 140.199 34.6281 140.199 31.96C140.199 29.2639 141 27.3121 142.6 26.1044C144.229 24.8968 146.378 24.293 149.046 24.293C150.253 24.293 151.447 24.4334 152.627 24.7143L153.301 24.8407L160.083 24.63V29.1376L156.924 28.8848C157.541 29.8396 157.85 30.7945 157.85 31.7494C157.85 34.5578 157.134 36.4957 155.702 37.5629C154.27 38.6301 152.023 39.1637 148.961 39.1637C148.315 39.1637 147.74 39.1075 147.234 38.9952C146.954 39.7254 146.813 40.3292 146.813 40.8066C146.813 41.256 147.052 41.5649 147.529 41.7334C148.006 41.9019 149.13 42.0002 150.899 42.0283C154.438 42.0564 156.853 42.534 158.145 43.4605C159.437 44.3595 160.083 46.0023 160.083 48.3893ZM145.507 49.0213C145.507 50.2288 146.982 50.8328 149.93 50.8328C152.907 50.8328 154.396 50.1305 154.396 48.7263C154.396 47.9681 154.143 47.4768 153.638 47.2522C153.132 47.0555 152.065 46.9432 150.436 46.9148L146.645 46.6202C145.886 47.3785 145.507 48.1787 145.507 49.0213ZM145.844 31.7915C145.844 33.8417 146.911 34.8668 149.046 34.8668C151.208 34.8668 152.289 33.8417 152.289 31.7915C152.289 29.7133 151.208 28.6742 149.046 28.6742C146.911 28.6742 145.844 29.7133 145.844 31.7915Z" fill="white"/>
<path d="M163.797 27.1176C165.286 25.1798 167.771 24.2109 171.254 24.2109C174.736 24.2109 177.222 25.1798 178.71 27.1176C180.199 29.0274 180.943 31.7235 180.943 35.206C180.943 42.5921 177.713 46.2855 171.254 46.2855C164.795 46.2855 161.565 42.5921 161.565 35.206C161.565 31.7235 162.309 29.0274 163.797 27.1176ZM168.137 39.9663C168.726 40.9773 169.765 41.4828 171.254 41.4828C172.742 41.4828 173.767 40.9773 174.329 39.9663C174.919 38.9553 175.214 37.3685 175.214 35.206C175.214 33.0435 174.919 31.4707 174.329 30.4878C173.767 29.5048 172.742 29.0134 171.254 29.0134C169.765 29.0134 168.726 29.5048 168.137 30.4878C167.575 31.4707 167.294 33.0435 167.294 35.206C167.294 37.3685 167.575 38.9553 168.137 39.9663Z" fill="white"/>
<path fill-rule="evenodd" clip-rule="evenodd" d="M34.3598 15.5251C31.8372 14.4802 29.1079 14.0296 26.3833 14.2082C23.6586 14.3868 21.0116 15.1898 18.6469 16.555L16.261 17.9325L13.506 13.1608L15.8919 11.7833C18.9886 9.99544 22.4549 8.94394 26.0229 8.71006C29.5909 8.47623 33.1649 9.0663 36.4684 10.4346C39.7719 11.803 42.7163 13.9129 45.0739 16.6012C47.4313 19.2896 49.139 22.4842 50.0647 25.938C50.9899 29.3919 51.1086 33.0123 50.4109 36.5192C49.7133 40.0262 48.2184 43.3257 46.0416 46.1624C43.8647 48.9992 41.0648 51.2973 37.8579 52.8786C34.651 54.46 30.5145 55.2826 27.5476 55.2826C24.5805 55.2826 22.8481 54.8376 20.573 53.8954C18.3618 52.9795 16.3527 51.6372 14.6603 49.9448C12.9679 48.2524 11.6255 46.243 10.7096 44.0318C9.7937 41.8208 9.32227 39.4509 9.32227 37.0575C9.32227 34.6641 9.7937 32.2942 10.7096 30.0831C11.6255 27.8719 12.9679 25.8627 14.6603 24.1704C16.3527 22.478 18.3618 21.1356 20.573 20.2196C22.7841 19.3038 25.1541 18.8324 27.5474 18.8324C29.9408 18.8324 32.3107 19.3038 34.5219 20.2196C36.7331 21.1356 38.7422 22.478 40.4346 24.1704C42.1269 25.8627 43.4693 27.8719 44.3852 30.0831C44.7794 31.0342 45.0909 32.0147 45.3185 33.0137C45.4295 31.1171 45.2367 29.2095 44.7425 27.3641C44.0355 24.7266 42.7317 22.2871 40.9313 20.2342C39.131 18.1813 36.8825 16.5701 34.3598 15.5251ZM16.5434 43.4282C16.8559 37.5048 21.758 32.798 27.7594 32.798C33.5288 32.798 38.2822 37.148 38.9187 42.7471C39.0536 42.4776 39.1791 42.2027 39.2948 41.9234C39.9338 40.3807 40.2627 38.7273 40.2627 37.0575C40.2627 35.3877 39.9338 33.7343 39.2948 32.1916C38.6558 30.6489 37.7192 29.2472 36.5385 28.0665C35.3578 26.8858 33.956 25.9492 32.4133 25.3102C30.8707 24.6712 29.2172 24.3423 27.5474 24.3423C25.8777 24.3423 24.2242 24.6712 22.6815 25.3102C21.1389 25.9492 19.7371 26.8858 18.5564 28.0665C17.3757 29.2472 16.4391 30.6489 15.8001 32.1916C15.1611 33.7343 14.8322 35.3877 14.8322 37.0575C14.8322 38.7273 15.1611 40.3807 15.8001 41.9234C16.0149 42.442 16.2633 42.9446 16.5434 43.4282ZM33.4812 44.0297C33.4812 47.1898 30.9195 49.7515 27.7594 49.7515C24.5993 49.7515 22.0375 47.1898 22.0375 44.0297C22.0375 40.8697 24.5993 38.3079 27.7594 38.3079C30.9195 38.3079 33.4812 40.8697 33.4812 44.0297Z" fill="white"/>
</svg>
